<svg height="22" viewBox="0 0 1.6962528 1.6962528" width="22" xmlns="http://www.w3.org/2000/svg" xmlns:xlink="http://www.w3.org/1999/xlink"><filter id="a" color-interpolation-filters="sRGB" height="1" width="1" x="0" y="0"><feColorMatrix values="0.21 0.72 0.072 0 0 0.21 0.72 0.072 0 0 0.21 0.72 0.072 0 0 0 0 0 1 0"/></filter><g clip-rule="evenodd" fill-rule="evenodd" filter="url(#a)" transform="matrix(-.02158038 0 0 .02158096 3.403005 -1.308145)"><path d="m126.959 138.207h3.865v-.352.352h.176c2.285-1.23 3.691-2.285 5.449-5.449h-.176l-.176-.176.352.176c1.406-2.988 1.23-6.678.703-8.963v-.176l-4.922-6.326.527-8.789 2.988-7.381v-.527h-.176l-.176.176.352.352-.352-.352.176-.176-1.23-.703-.527-.176v.527l-3.164 8.611h.352-.352l-.176 10.369-.352.527c-.879-1.055-1.758-1.23-2.459-2.283-.352-.352-.527-.703-.703-1.055v-16.872l1.404-5.624.176-.176h-.35.174l-.701-2.285c.176-3.164.701-6.502.176-9.666-.352-1.582-.527-2.636-.879-3.867v-1.582l.879-.527 1.229.351.879.879.352.176c.352.176.703.176.879.351 1.758-.175 1.582-.175 2.637-1.406.879-2.988-2.812-6.502-5.449-1.582l-1.053.176c-.527.176-.879-.527-1.758-.879-.527-.703-1.406-1.055-2.285-1.055.527-.176.879-.352 1.582-.527v-2.812c-1.23-4.218-2.461-4.394-4.922-7.03l.703.527 2.461 2.285 2.285 3.515 1.406-.176v-1.582l-2.988-2.636-4.043-2.636.527-.176 1.055.176c1.23.878 2.637 1.757 4.043 2.46 3.514 1.406 7.029 1.757 8.611 5.624.703 3.515 1.23 7.206 2.285 10.369 2.283 2.812 2.635 4.394 3.514 7.732 4.219 15.466 3.164 28.121 1.582 43.41 1.582 4.746 4.746 5.449 7.031 7.031l-21.441.176z"/><path d="m115.359 135.922 2.635-2.285-1.053-2.988c-.527-2.283-.527-3.162-.352-5.623-.527-.527-1.406-1.23-1.934-2.109l1.055-.703c.352-.176.703-.703.879-.879.527-.352 1.23-.703 1.756-.703l.176.176v.176h.176l.352.176.176-.352-.176.352.703.176c2.812 1.934 2.637 3.516 2.285 7.381v.176h.176c1.934 2.988 2.988 4.395 2.637 7.207-.176 0-.703-.176-.879-.352-.352-.176-.527-1.055-.879-1.582-.527-.879-.527-2.637-.879-3.34-.176-.352-.879-.703-.703-1.055l.176-1.055-.176-1.229-1.23-.352v-.703c.352-.352 1.406-.879 1.406-1.406.176-1.055-.176-2.637-1.758-2.637-.352 0-1.406 0-1.582.527-.176.176-.352.703-.176 1.055 0 .352.527.703.352.703-.701 0-1.229.176-1.404.352-.176.352-.176.352 0 0 0 1.23-.176 2.461-.176 3.34.352 2.635 1.229 4.744 2.107 6.678h.879c.527.703.176 1.406.527 1.934 0 .352.527.527 1.055.352l.352-.527c.176 0 1.406-.176 2.109 0 .176 0 .352.176.703.176-.352.352-.352.527-.352.703l.527.176-.527-.176-.176.527h2.812v.352h-11.424zm-16.521 2.461h8.789v-.352.352h.174l-.174.176zm27.066-34.623 1.055-4.219v16.873c-1.934-3.867-1.23-8.086-1.055-12.654zm-4.218-8.085c-.176-2.461-2.461-4.745-4.744-2.988v1.054l-.176 1.055h-.527c-.879-1.933-1.23-1.933-2.812-3.339l-1.406-.527h-.176c-2.461-.879-4.92 0-6.502 1.582-1.055.878-1.934 2.109-2.461 3.164h-8.963c1.934-6.503 5.975-11.6 15.641-10.545 2.109.527 3.34 1.054 5.273 1.757-.176 0-.176.176-.176.176l-.176.352.176.176c2.637 2.46 5.096 3.866 6.678 5.448.703.703 1.582 1.582 1.934 2.637h-1.583z"/><path d="m87.766 138.383 3.691-1.582 1.406-1.055 1.582-2.461c-1.23-11.424-1.934-18.102-2.285-27.24.351-3.164.703-7.031 1.757-10.37h8.963c-.527 1.231-1.23 2.459-1.406 3.514h.352-.352v12.303c-.703 2.109-1.406 5.273-2.109 7.381l-1.582 1.758-.877-2.283-.176-6.68h-.703l-.527 1.934.176.176h.176-.703.527l-.176-.176h-.352v.176l.527 7.557h.351-.351v.176l1.23 1.582 2.811 12.127-1.406 2.637.527.176-.527-.176-.176.527h-10.368zm21.441-1.406v-.352h-.528.527v-2.285l.176 2.461-1.23 1.055zm13.182-8.262-.176.176zm-1.758-18.102.703-2.986.176-2.109-.703-1.406-.703-.176-.527.352v.527c-.352-.527-.527-.879-.703-1.23l-.176.176h-.176l.352-.176-1.932-3.164v-.176h-.176l-.703-.352.352-.176v-1.406l.527-.877.879-.176.701.176.176.877c.352.176.527.176.879.352 1.406-.176 1.23-.176 2.109-1.404.176-.352.176-.88 0-1.583h1.582c.527 1.231.879 2.811 1.055 4.745-.352 2.988-1.934 4.395-2.461 6.68zm16.346 13.182h.175zm-39.37-2.637v.176zm1.934-2.285v.176zm15.467-31.458-.352.176z"/><path d="m99.365 137.68 1.23-2.109v-.528l-2.988-12.127v-.176l-.176.176.176-.176-1.405-1.582v-7.381 4.744l.352-.174v.174h-.352l1.054 2.812.352-.176v.176-.176l.176.352 2.109-2.285v-.176h-.352l.352.176-.352-.176v-.176l.352.176c.879-2.107 1.582-5.271 2.461-7.381h-.527.527-.527.527v-12.478c.527-2.107 1.758-4.569 3.516-6.151 1.582-1.406 3.338-2.108 5.623-1.406l1.23.879c1.758 1.933 1.934 3.164 1.934 5.271v2.462l.352.176 1.406.352 1.756 3.164c1.582 3.34 1.758 5.096 1.934 8.611l.703.176-.352-.176.352.176 1.758-5.447h-.352.352c.527-1.934 2.109-3.691 2.637-6.68v-.176c-.879-8.436-4.746-8.436-9.842-13.356 1.758-4.042 3.514-9.666 6.854-12.654h.352c1.23.703 2.109 1.406 2.637 1.933.527 1.055.879 1.933 1.23 2.636s.352 1.758.703 2.812c.352 3.164 0 6.502-.176 9.666h.352-.352v.176l.703 2.109-2.461 9.842v.176c-.176 4.92-1.406 9.666 1.758 14.061 1.23 1.404 2.107 1.404 2.635 2.811l.527-.176.176.176.879-1.055v-.353h-.352l.352.352-.352-.352h.352l.352-10.193 2.812-8.26.352.352-2.637 7.205.352.176-.352-.176v.176l-.527 8.965h.352-.352v.176h.176l4.746 6.326c.527 2.109.703 5.799-.527 8.611-1.758 2.637-3.164 3.867-5.098 4.922h-5.623c1.23-3.867-.176-5.801-2.285-8.789.352-3.689.352-5.975-2.812-8.084h-.176v.352-.352l-.703-.176v.352-.352h-.176l-1.229-2.635c-.527-.703-.879-1.582-1.055-2.285h-.352.352c-.703-2.637-1.23-5.098-1.582-7.732h-.703l-3.164 12.301-2.988 9.314h.352-.528.176v7.207l-.877 1.055zm-2.109-16.346.176.703.352-.527-.176-.176zm32.338-.703.352.527.352-.527-.176-.176zm-29.526 14.588.527.352zm-4.393-21.442h.176zm24.604-1.23h-.176zm-5.623-4.744h.527zm10.545-4.043h.352zm-10.193-3.692v.352z" fill="#fff"/><path d="m107.801 138.383.352-.527zm-8.963 0h-.703zm10.017-8.965 1.406-5.271 1.23-3.867 2.285-8.611.879-3.34.176.352c.527 2.285.703 4.746 1.582 6.855l-.352.176c-.703-1.934-1.055-3.867-1.406-5.977l-2.637 10.545h-.176.176-.176l-2.637 9.139v4.922zm8.086-11.07.352-.352 1.229 2.283.176.352h-.352zm-.879-2.637.352-.176c.176.879.527 1.758.879 2.461l-.352.352c-.351-.879-.703-1.934-.879-2.637zm-1.23-28.823c1.582-4.042 3.162-9.315 6.502-12.654v.176c-1.23 1.406-2.285 2.988-3.164 4.569zm-7.205 51.495v-.352.352h-9.492l.176-.528.527.176-.527-.176 1.406-2.636-2.811-12.127-1.231-1.582v-.176h.351l1.23 1.758 2.812 12.127-1.23 2.812h8.789l1.053-1.406h.527v.352l-1.055.878-.351.528zm23.197-.176v-.352.352h-3.865v-.352h3.865c1.934-1.055 3.691-2.109 5.273-5.098v-.176l.176.176h.176c-1.758 3.164-3.164 4.219-5.449 5.449h-.176z"/><path d="m124.85 138.207h-.703l.176-.527.527.176-.527-.176c0-.176 0-.352.352-.703.176 0 .176.352.352 0-.176.352-.176.703-.176.879h2.109v.352h-2.11zm.175-1.406c0-.352-.176-.527-.176-.703.352-2.812-.703-4.219-2.637-7.207h-.176v-.176c.352-3.865.527-5.447-2.285-7.381l-.703-.176.176-.352-.176.352.176-.352.703.176c3.164 2.109 2.988 4.043 2.461 7.732 2.286 3.165 3.341 4.747 2.637 8.087zm-2.812-7.91.176-.176zm-13.533.527 1.582-5.271-1.406 5.271.352 4.922v2.285h-.527v-7.207zm27.418 3.164c1.406-2.812 1.23-6.502.703-8.787l-4.922-6.326.527-8.965 2.988-7.732.352.352-.352-.352.176-.176h.176v.527l-2.988 7.381-.527 8.789 4.922 6.326v.176c.527 2.285.703 5.975-.703 8.963zm.879-8.787h.176z"/><path d="m95.148 113.777v-.176h.352l.176.176h-.528.703l.175 7.557h-.351zm2.459 7.381-1.054-2.637v-.174l-.176-6.68-.703 2.109-.176-.176.527-1.934h.703l.176 6.68.877 2.283 1.582-1.758c.703-2.107 1.406-5.271 2.109-7.381v-12.301h.352v12.479c-.703 2.109-1.582 5.098-2.285 7.205v.176zm21.09-.176h-.176v-.176l-.176-.176h.352l-.176-.352.176.352.527.176-.176.352zm8.614-3.337.352-.176-.352.176c-.176-.176-.176-.352-.352-.527v-.703c.176.352.352.703.703 1.055.701 1.053 1.58 1.229 2.459 2.283l.352-.527.176-10.369h.351-.352l3.164-8.611v-.527l.527.176 1.23.703-.176.176-1.23-.527-3.163 8.608-.176 10.369-.703 1.23c-.879-1.581-1.932-1.581-2.81-2.809zm-.352-19.686 1.23-4.217-.879-2.285c.176-3.164.527-6.502 0-9.666h.527-.527c0-1.054-.176-2.109-.352-2.812v-1.055c.352 1.23.527 2.285.879 3.867.525 3.164 0 6.502-.176 9.666l.701 2.285h-.174.35l-.176.176-1.404 5.624v-1.583zm-3.691-2.284c-.352-1.055-1.23-1.934-1.934-2.637-1.582-1.582-4.041-2.987-6.678-5.448l-.176-.176.176-.352s0-.176.176-.176l3.338-7.909c.879-1.582 1.934-3.163 3.164-4.569h.352c-3.34 3.163-4.92 8.787-6.678 13.005 4.041 3.691 7.029 4.569 8.611 8.26h-.351zm-8.612-8.084.352-.176zm-11.775 8.084c.527-1.055 1.406-2.285 2.461-3.164 1.582-1.582 4.041-2.46 6.502-1.582l-.527.176c-3.689-.879-6.502 1.757-8.084 4.569h-.352z"/><path d="m125.553 103.76 1.406-5.801v1.582l-1.055 4.219c-.176 4.568-.879 8.787 1.055 12.654v.703c-2.637-4.219-1.582-8.613-1.406-13.357zm-5.098 8.435.176-1.582 1.23-3.514c.527-2.285 2.109-3.691 2.461-6.68-.176-1.934-.527-3.514-1.055-4.745h.352c.527 1.231 1.055 2.811 1.23 4.745-.527 3.164-1.934 4.57-2.637 6.855l-1.758 5.271zm-5.799-4.392c.176.35.176.525.176.877l-.176-.352-.879 3.34zm3.865-4.043-1.932-3.164-1.406-.527h.352l.527-.176.703.352h.176v.176l1.932 3.164-.352.175h.176l.176-.176c.176.352.352.703.703 1.23l-.352.527.352 1.055c-.351-.878-.703-1.582-1.055-2.636zm-17.046-4.571c.176-1.055.879-2.283 1.406-3.514h.352c-.527 1.231-1.23 2.459-1.406 3.514z"/><path d="m98.838 138.031 1.23-2.812-2.812-12.127-1.229-1.758-.175-7.557h-.176l.703-2.109.176 6.68-.352.174v-4.744 7.381l1.405 1.582-.176.176.176-.176v.176l2.988 12.127v.528l-1.23 2.109h8.086l.877-1.055v-7.207h-.176.528-.352l2.988-9.314 3.164-12.301h.176l-3.164 12.477-2.812 9.139v7.207l-1.053 1.406h-8.79zm1.758-2.461-.527-.352zm24.254 2.285c0-.176 0-.527.176-.879v-.176c.703-3.34-.352-4.922-2.637-8.086.527-3.689.703-5.623-2.461-7.732v-.352h.176c3.164 2.109 3.164 4.395 2.812 8.084 2.109 2.988 3.516 4.922 2.285 8.789h5.623c1.934-1.055 3.34-2.285 5.098-4.922 1.23-2.812 1.055-6.502.527-8.611l-4.746-6.326h-.176v-.176h.352-.352l.527-8.965v-.176l.352.176-.527 8.965 4.922 6.326c.527 2.285.703 5.975-.703 8.787v.176c-1.582 2.988-3.34 4.043-5.273 5.098zm-27.594-16.521h.352l.176.176-.352.527zm.351-.176 1.934-2.109.352.176-.352-.176h.352v.176l-2.109 2.285zm-1.405-2.637h.352v-.174.174l1.054 2.637-.352.176zm33.392 2.11.527-.176.176.176-.352.527zm-9.666.351-.703-.176v-.352l.703.176zm-.703-.175-.527-.176-1.404-2.635c-.352-.703-.703-1.582-.879-2.461h.352-.352.352c.176.703.527 1.582 1.055 2.285l1.229 2.635h.176v.352zm10.896-.352-.527.176c-.527-1.406-1.404-1.406-2.635-2.811-3.164-4.395-1.934-9.141-1.758-14.061v-.176l2.461-9.842-.703-2.109v-.176h.352-.352c.176-3.164.527-6.502.176-9.666-.352-1.054-.352-2.109-.703-2.812.176.176.352.176.527 0 .176.703.352 1.758.352 2.812.527 3.164.176 6.502 0 9.666l.879 2.285-2.637 10.018h-.352.352c-.176 4.92-1.23 9.666 1.758 13.885.878 1.229 1.931 1.229 2.81 2.811l.703-1.23.352.352-.352-.352h.352v.352l-.879 1.055zm.703-1.23.176-10.37 3.164-8.611 1.23.527-2.988 7.732-.352-.176 2.637-7.205-.352-.352-2.812 8.26-.352 10.193h-.351zm-31.283-.352c.703-2.107 1.582-5.096 2.285-7.205h.527-.527.527c-.879 2.109-1.582 5.273-2.461 7.381zm16.873-3.338c-.879-2.285-1.23-4.922-1.758-7.732h.528c.352 2.635.879 5.096 1.582 7.732zm4.041-2.988v-.352.352l1.758-5.271h.352l-1.758 5.447zm-.351 0h.352l.352.176zm-1.934-8.611-1.756-3.164-1.406-.352-.352-.176v-.176h.352v.352-.352h.176l1.406.527 1.932 3.164c.352 1.055.703 1.758 1.055 2.637l.352 2.107.352 4.043h-.176c-.177-3.515-.353-5.271-1.935-8.61zm-16.344 7.732v-12.479c1.055-3.866 4.219-9.314 9.49-8.083l-.176.176.352.351c-2.285-.703-4.041 0-5.623 1.406-1.758 1.582-2.988 4.043-3.516 6.151v12.479h-.527zm12.83-3.865h-.176.703zm7.557-.528c.703-2.285 2.109-3.691 2.637-6.855-.879-8.26-4.57-7.908-9.842-13.005 1.758-4.218 3.338-9.842 6.678-13.005h.527c-3.34 2.988-5.096 8.611-6.854 12.654 5.096 4.921 8.963 4.921 9.842 13.356v.176c-.527 2.988-2.109 4.746-2.637 6.68h-.351zm-7.557-9.492c.176.176.176.352 0 .352zm7.908-23.373h.527s1.23.527 1.934 1.757l.176.176c-.527-.527-1.406-1.054-2.637-1.933z"/><path d="m114.656 100.068c0-3.162.527-4.92-1.934-7.557l-1.582-1.23.879-.352 1.406.527c1.582 1.406 1.934 1.406 2.812 3.339h.527l.176-1.055v-1.054c2.986-2.285 5.271 1.757 4.744 4.57-.879 1.229-.703 1.229-2.109 1.404-.352-.176-.527-.176-.879-.352l-.176-.877-.701-.176-.879.176-.527.877v1.406l-.879.352h-.878zm10.369-23.901c-.703-1.23-1.934-1.757-1.934-1.757h-1.758l.176-1.055.879-.527c1.23 0 2.461.176 3.164 1.055.879.352 1.23 1.055 1.758.879l1.053-.176c2.637-4.921 6.328-1.406 5.449 1.582-1.055 1.23-.879 1.23-2.637 1.406-.176-.175-.527-.175-.879-.351l-.352-.176-.879-.879-1.229-.351-.879.527c0 1.933 0 2.812-.176 2.812-.349-.001-1.052-1.583-1.756-2.989zm-5.097 32.337-.703-3.162.351-1.055.528-.351.703.175.703 1.407-.176 2.109-.879 4.92zm3.164-43.233-2.461-2.285-1.582-1.055.527-.175 4.219 2.636 2.988 2.636v1.582l-1.406.176z" fill="#ffee65"/><path d="m120.455 136.977c-.352-.527 0-1.23-.527-1.934h-.879c-.879-1.934-1.756-4.043-2.107-6.678 0-.879.176-2.109.176-3.34.176-.176.703-.352 1.404-.352.176 0-.352-.352-.352-.703-.176-.352 0-.879.176-1.055.176-.527 1.23-.527 1.582-.527 1.582 0 1.934 1.582 1.758 2.637 0 .527-1.055 1.055-1.406 1.406v.703l1.23.352.176 1.229-.176 1.055c-.176.352.527.703.703 1.055.352.703.352 2.461.879 3.34.352.527.527 1.406.879 1.582.352.352 1.055.352 1.055 1.055s-.176.176-1.055 0c-.703-.176-1.934 0-2.109 0l-.352.527c0 .176-.176.176-.527.176-.176-.001-.528-.177-.528-.528zm-.879-13.709c0 .352.176.527.352.527.352 0 .527-.176.527-.527 0-.176-.176-.352-.527-.352a.379.379 0 00-.352.352zm-2.459 1.757c-.176 0-.176.352-.176.352s0-.352.176-.352z" fill="#fff"/><path d="m119.576 123.268c0-.176.176-.352.352-.352.352 0 .527.176.527.352 0 .352-.176.527-.527.527-.176 0-.352-.176-.352-.527z"/></g></svg>
