<svg height="22" viewBox="0 0 22 22" width="22" xmlns="http://www.w3.org/2000/svg" xmlns:xlink="http://www.w3.org/1999/xlink"><linearGradient id="a" x1=".54638" x2=".28129" y1=".26924" y2=".79519"><stop offset="0" stop-color="#fff" stop-opacity="0"/><stop offset="1" stop-color="#fff" stop-opacity=".27451"/></linearGradient><filter id="b" color-interpolation-filters="sRGB" height="1" width="1" x="0" y="0"><feComposite in2="SourceGraphic" k1="0" k2="1" operator="arithmetic" result="composite1"/><feColorMatrix in="composite1" result="colormatrix1" type="saturate" values="1"/><feFlood flood-opacity="0" result="flood1"/><feBlend in="flood1" in2="colormatrix1" mode="multiply" result="blend1"/><feBlend in2="blend1" mode="screen" result="blend2"/><feColorMatrix in="blend2" result="colormatrix2" type="saturate" values="1"/><feComposite in="colormatrix2" in2="SourceGraphic" k2="1" operator="in" result="composite2"/></filter><path d="m11.178345.13183087c-.979345 2.40084983-1.5740325 3.97340073-2.6640638 6.30299123.66825.7084677 1.4898128 1.5307166 2.8225328 2.4626215-1.4327514-.5895304-2.4093453-1.1797483-3.1394703-1.7940287-1.3952813 2.9115581-3.5829062 7.0575211-8.01899999 15.0283851 3.48562499-2.01231 6.18818749-3.253933 8.70649999-3.72762-.1079375-.464405-.1653437-.96903-.1612187-1.493248l.00275-.11c.055344-2.233684 1.2175626-3.9514 2.594282-3.834869 1.376375.116531 2.448188 2.022622 2.392844 4.25665-.01066.42075-.05947.824999-.142312 1.200373 2.491156.487437 5.167937 1.723217 8.607156 3.708714-.678219-1.248498-1.285625-2.37359-1.863813-3.445745-.910593-.705718-1.860031-1.623873-3.797406-2.61834 1.331688.346156 2.285938.74628 3.029125 1.192467-5.877437-10.943266-6.3525-12.3983577-8.367906-17.12835113v-.00003094z" fill="#dcdcdc" filter="url(#b)" stroke-width=".34375"/><path d="m50.266 38.249c-13.872-18.827-17.087-34.002-17.902-37.625 7.4 17.067 7.349 17.277 17.902 37.625z" fill="#fff" fill-opacity=".16568"/><path d="m32.378.45992c-.36.88448-.7 1.7468-1.032 2.5625-.364.8946-.718 1.7565-1.062 2.5938s-.693 1.6309-1.031 2.4375c-.339.8065-.654 1.6039-1 2.4063-.346.802-.726 1.613-1.094 2.437-.368.825-.752 1.658-1.156 2.532-.404.873-.828 1.801-1.282 2.75-.061.128-.124.276-.187.406 1.939 2.054 4.33 4.427 8.187 7.125-4.167-1.715-7-3.432-9.125-5.219-.11.226-.198.425-.312.656-.42.871-.871 1.733-1.344 2.688-.113.224-.196.427-.312.656-.501 1.004-1.026 2.043-1.594 3.156-.113.22-.228.402-.344.625-.343.667-1.44 2.77-2.562 4.907-.655 1.248-1.169 2.27-1.907 3.656-.209.398-.639 1.195-.75 1.406 8.125-4.573 16.891-11.216 32.813-5.531-.797-1.51-1.562-2.919-2.25-4.25-.688-1.332-1.312-2.571-1.906-3.75s-1.143-2.291-1.657-3.344c-.513-1.053-.989-2.047-1.437-3s-.885-1.87-1.281-2.75c-.397-.879-.766-1.73-1.125-2.562-.359-.833-.695-1.658-1.032-2.469-.336-.8115-.672-1.5896-1-2.4063-.142-.3554-.263-.7338-.406-1.0938-.888-2.0849-1.759-4.1515-2.812-6.625v.00002z" fill="url(#a)"/></svg>
