<svg height="22" viewBox="0 0 5.8208334 5.8208334" width="22" xmlns="http://www.w3.org/2000/svg" xmlns:xlink="http://www.w3.org/1999/xlink"><filter id="a" color-interpolation-filters="sRGB" height="1" width="1" x="0" y="0"><feComposite in2="SourceGraphic" k1="0" k2="1" operator="arithmetic" result="composite1"/><feColorMatrix in="composite1" result="colormatrix1" type="saturate" values="1"/><feFlood flood-opacity="0" result="flood1"/><feBlend in="flood1" in2="colormatrix1" mode="multiply" result="blend1"/><feBlend in2="blend1" mode="screen" result="blend2"/><feColorMatrix in="blend2" result="colormatrix2" type="saturate" values="1"/><feComposite in="colormatrix2" in2="SourceGraphic" k2="1" operator="in" result="composite2"/></filter><g fill="#ececec" filter="url(#a)" transform="matrix(.26458333 0 0 .26458333 -6.18137 -6.181371)"><path d="m34.362534 23.362661-3.878229 7.756532 10.673365 5.8334zm-5.049829 10.099868-5.950046 11.900132 17.655823-7.115163zm13.011327 5.822933-5.568409 3.118282 8.607036 2.958917z"/><path d="m40.326689 42.05193 1.997348-2.766694 3.038622 6.07742z"/><path d="m23.362659 45.362661 12.369072-7.145702 5.286732.0306z"/><path d="m41.157704 36.952513-10.673308-5.833489 2.772652-1.041731z"/><path d="m45.362659 45.362661-8.607026-2.958828 3.571056-.351903z"/><path d="m23.362659 45.362661 12.369072-7.145702-6.419098-4.754383z"/><path d="m41.157699 36.952513-7.900651-6.87522 1.105486-6.714632z"/></g></svg>
