<svg enable-background="new 0 0 87.041 108.445" height="22" viewBox="0 0 22 22" width="22" xmlns="http://www.w3.org/2000/svg" xmlns:xlink="http://www.w3.org/1999/xlink"><filter id="a" color-interpolation-filters="sRGB" height="1" width="1" x="0" y="0"><feColorMatrix in="SourceGraphic" result="r" values="1 0 0 0 0 1 0 0 0 0 1 0 0 0 0 0 0 0 0 1"/><feColorMatrix in="SourceGraphic" result="g" values="0 1 0 0 0 0 1 0 0 0 0 1 0 0 0 0 0 0 0 1"/><feColorMatrix in="SourceGraphic" result="b" values="0 0 1 0 0 0 0 1 0 0 0 0 1 0 0 0 0 0 0 1"/><feBlend in="r" in2="g" mode="darken" result="minrg"/><feBlend in="minrg" in2="b" mode="darken" result="p"/><feBlend in="r" in2="g" mode="lighten" result="maxrg"/><feBlend in="maxrg" in2="b" mode="lighten" result="q"/><feComponentTransfer in="q" result="q2"><feFuncR slope="0" type="linear"/></feComponentTransfer><feBlend in="p" in2="q2" mode="lighten" result="pq"/><feColorMatrix in="pq" result="qminp" values="-1 1 0 0 0 -1 1 0 0 0 -1 1 0 0 0 0 0 0 0 1"/><feComposite in="qminp" in2="qminp" k3="1" operator="arithmetic" result="qminpc"/><feBlend in2="SourceGraphic" mode="screen" result="result2"/><feComposite in="result2" in2="SourceGraphic" operator="in" result="result1"/></filter><g fill="#ff0049" filter="url(#a)" transform="matrix(.202 0 0 .202 2.14 0)"><path d="m52 57.3c-1.8.025.34.926 2.69 1.29.648-.506 1.24-1.02 1.76-1.52-1.46.358-2.95.366-4.45.229"/><path d="m61.6 54.9c1.07-1.48 1.85-3.09 2.12-4.77-.24 1.19-.887 2.22-1.5 3.31-3.36 2.12-.316-1.26-.002-2.54-3.61 4.55-.496 2.73-.627 4"/><path d="m65.2 45.6c.217-3.24-.637-2.21-.924-.978.335.174.6 2.28.924.978"/><path d="m45.2 1.4c.959.172 2.07.304 1.92.533 1.05-.23 1.29-.442-1.92-.533"/><path d="m47.1 1.93-.678.14.631-.056z"/><path d="m77 46.9c.107 2.91-.85 4.32-1.71 6.81l-1.55.776c-1.27 2.47.123 1.57-.787 3.53-1.98 1.76-6.02 5.52-7.31 5.86-.943-.021.639-1.11.846-1.54-2.66 1.82-2.13 2.74-6.19 3.85l-.119-.264c-10 4.71-23.9-4.63-23.8-17.4-.107.809-.304.607-.526.934-.517-6.56 3.03-13.1 9.01-15.8 5.85-2.9 12.7-1.71 16.9 2.2-2.3-3.01-6.88-6.21-12.3-5.91-5.32.084-10.3 3.46-12 7.13-2.72 1.72-3.04 6.61-4.23 7.51-1.6 11.7 3 16.8 10.8 22.8 1.22.826.345.951.511 1.58-2.59-1.21-4.95-3.04-6.9-5.28 1.03 1.51 2.15 2.98 3.59 4.14-2.44-.826-5.7-5.91-6.65-6.12 4.2 7.52 17.1 13.2 23.8 10.4-3.11.115-7.07.064-10.6-1.23-1.47-.756-3.47-2.32-3.11-2.62 9.18 3.43 18.7 2.6 26.6-3.77 2.02-1.57 4.23-4.25 4.87-4.29-.961 1.44.164.695-.574 1.97 2.01-3.25-.875-1.32 2.08-5.61l1.09 1.5c-.406-2.7 3.35-5.97 2.97-10.2.861-1.3.961 1.4.047 4.4 1.27-3.33.334-3.86.66-6.61.352.923.814 1.9 1.05 2.88-.826-3.22.848-5.42 1.26-7.28-.408-.181-1.28 1.42-1.47-2.38.029-1.65.459-.865.625-1.27-.324-.186-1.17-1.45-1.69-3.88.375-.57 1 1.48 1.51 1.56-.328-1.93-.893-3.4-.916-4.88-1.49-3.11-.527.415-1.74-1.34-1.59-4.95 1.32-1.15 1.51-3.4 2.4 3.48 3.78 8.88 4.4 11.1-.48-2.73-1.26-5.37-2.2-7.92.73.307-1.18-5.61.949-1.69-2.27-8.35-9.72-16.2-16.6-19.8.838.767 1.9 1.73 1.52 1.88-3.41-2.03-2.81-2.19-3.3-3.04-2.78-1.13-2.96.091-4.8.002-5.23-2.77-6.24-2.48-11.1-4.22l.219 1.02c-3.46-1.15-4.04.438-7.78.004-.228-.178 1.2-.644 2.38-.815-3.35.442-3.19-.66-6.47.122.808-.567 1.66-.942 2.52-1.42-2.73.166-6.52 1.59-5.35.295-4.46 1.99-12.4 4.78-16.8 8.94l-.14-.933c-2.04 2.44-8.87 7.3-9.42 10.5l-.544.127c-1.06 1.79-1.74 3.82-2.58 5.67-1.38 2.36-2.03.908-1.83 1.28-2.72 5.52-4.08 10.2-5.25 14 .833 1.24.02 7.5.335 12.5-1.37 24.7 17.3 48.7 37.8 54.2 3 1.07 7.45 1.03 11.2 1.14-4.47-1.28-5.05-.678-9.41-2.2-3.14-1.48-3.83-3.17-6.06-5.1l.881 1.56c-4.37-1.54-2.54-1.91-6.09-3.04l.941-1.23c-1.42-.107-3.75-2.38-4.39-3.65l-1.55.061c-1.86-2.3-2.85-3.95-2.78-5.23l-.5.891c-.567-.973-6.84-8.61-3.59-6.83-.605-.553-1.41-.9-2.28-2.48l.663-.758c-1.57-2.02-2.88-4.6-2.78-5.46.836 1.13 1.42 1.34 1.99 1.53-3.96-9.82-4.18-.541-7.18-9.99l.634-.051c-.486-.732-.781-1.53-1.17-2.31l.276-2.75c-2.85-3.29-.797-14-.386-19.9.285-2.39 2.38-4.93 3.97-8.92l-.97-.167c1.85-3.23 10.6-13 14.6-12.5 1.96-2.46-.389-.009-.772-.629 4.3-4.45 5.66-3.15 8.56-3.95 3.13-1.86-2.69.725-1.2-.709 5.41-1.38 3.84-3.14 10.9-3.85.745.424-1.73.655-2.35 1.2 4.51-2.21 14.3-1.7 20.6 1.22 7.36 3.44 15.6 13.6 16 23.2l.371.1c-.188 3.8.582 8.2-.752 12.2z"/><path d="m32.4 59.8-.252 1.26c1.18 1.6 2.12 3.34 3.63 4.6-1.08-2.12-1.89-2.99-3.37-5.86"/><path d="m35.2 59.7c-.625-.691-.995-1.52-1.41-2.35.396 1.46 1.21 2.71 1.96 3.98z"/><path d="m84.6 48.9-.264.662c-.484 3.44-1.53 6.84-3.13 9.99 1.77-3.33 2.92-6.97 3.4-10.7"/><path d="m45.5.537c1.22-.445 2.99-.244 4.28-.537-1.68.141-3.35.225-5 .438z"/><path d="m2.87 23.2c.28 2.59-1.95 3.6.494 1.89 1.31-2.95-.512-.815-.494-1.89"/><path d="m0 35.2c.563-1.73.665-2.77.88-3.77-1.56 1.99-.716 2.41-.88 3.77"/></g></svg>
