<svg height="22" width="22" xmlns="http://www.w3.org/2000/svg" xmlns:xlink="http://www.w3.org/1999/xlink"><path d="m21.432923 11.015183c0-5.7547461-4.665132-10.42002954-10.419836-10.42002954-5.7521158 0-10.41542997 4.66136604-10.41951094 10.41268154v8.063397c.003095 1.305874 1.06220984 2.363022 2.36890364 2.363022h8.0548343c5.752782-.0022 10.415609-4.665855 10.415609-10.419071" fill="#fff" stroke-width=".078269"/><path id="a" d="m6.6009128 11.687629h3.7447812v3.744784c0 2.067117-1.6776625 3.744779-3.7447812 3.744779-2.0671194 0-3.744781-1.677662-3.744781-3.744779 0-2.06712 1.6776616-3.744784 3.744781-3.744784z" fill="#fff" stroke="#f2f2f2" stroke-width="2.28625"/><use fill="#fff" height="100%" stroke="#f2f2f2" transform="matrix(-1 0 0 -1 20.67334 23.382542)" width="100%" xlink:href="#a"/><path id="b" d="m11.453237 10.547375v4.879798c0 2.70061-2.1896152 4.890273-4.89032 4.890273-.4097356 0-.7010192-.04626-1.0803018-.1454-.5530476-.14473-1.0050152-.598177-1.005203-1.125602 0-.637515.462757-1.101241 1.1544964-1.101241.3292301 0 .4486928.06321.9310084.06321 1.4238465 0 2.5787924-1.153316 2.5812899-2.577162v-2.242929c0-.200976-.1633193-.363817-.3646314-.363817l-1.6957232-.000313c-.6318 0-1.1422645-.503931-1.1422645-1.137462-.0003366-.63747.5157014-1.139334 1.1543236-1.139334" fill="#333" stroke-width=".078269"/><use fill="#333" height="100%" transform="matrix(-1 0 0 -1 20.635304 23.382542)" width="100%" xlink:href="#b"/><path d="m19.634982 19.630933s.000003-.432939.000003-.432939l-.197906.453787s-.192653-.453787-.192653-.453787l.000036.432939h-.111009v-.683677h.11639s.190505.436784.190505.436784l.18762-.436784h.11783v.683677zm-.808759-.569163v.569163h-.116006v-.569163h-.194489v-.114514h.504795v.114514" fill="#676767" stroke-width=".078269"/></svg>
