<svg height="22" preserveAspectRatio="xMidYMid" viewBox="0 0 22 22" width="22" xmlns="http://www.w3.org/2000/svg"><g fill="#fff" stroke="#000" transform="matrix(.08228257 0 0 .08457073 .445501 .452354)"><path d="m252.72296 5.1092398c13.50776 13.5014392-23.93868 72.8490162-30.26925 79.1827522-6.33058 6.3211-22.40974.505435-35.91118-12.999163-13.50775-13.50144-19.32658-29.583758-12.996-35.914335 6.32742-6.333736 65.67183-43.7770117 79.17643-30.2692542"/><path d="m63.30478 19.394104c-20.621759-11.7008264-49.965435-24.7157845-59.3001927-15.381027-9.4579574 9.454798 4.0340052 39.458699 15.8580317 60.118366 10.52253-18.293598 25.489732-33.693579 43.442161-44.737339"/><path d="m232.12332 79.63567c1.89854 6.44114 1.55737 11.760846-1.52263 14.834525-7.19297 7.196135-26.6238-.464369-44.14029-17.134256-1.22252-1.096163-2.43557-2.233392-3.6265-3.427483-6.33373-6.336894-11.26173-13.081296-14.41438-19.291832-6.13472-11.005853-7.66998-20.726005-3.03261-25.363373 2.52717-2.524018 6.57066-3.212673 11.50181-2.325003 3.21583-2.034377 7.01291-4.299358 11.17644-6.621202-16.92893-8.829322-36.17653-13.8173362-56.59296-13.8173362-67.718846 0-122.6185931 54.8902702-122.6185931 122.6154402 0 67.71253 54.8997471 122.60911 122.6185931 122.60911 67.71885 0 122.61544-54.89658 122.61544-122.60911 0-21.86956-5.73985-42.377592-15.76642-60.156277-2.16706 3.955031-4.27409 7.57837-6.1979 10.686797"/></g></svg>
