<svg height="22" width="22" xmlns="http://www.w3.org/2000/svg" xmlns:xlink="http://www.w3.org/1999/xlink"><linearGradient id="a"><stop offset="0" stop-color="#fff"/><stop offset=".3421" stop-color="#fff"/><stop offset=".52" stop-color="#fff"/><stop offset=".7541" stop-color="#e9e9e9"/><stop offset=".8711" stop-color="#dadada"/><stop offset="1" stop-color="#787878"/></linearGradient><linearGradient id="b" gradientUnits="userSpaceOnUse" x1="39.651377" x2="35.77028" xlink:href="#a" y1="41.398477" y2="23.998631"/><radialGradient id="c" cx="332.70001" cy="590.59998" gradientTransform="matrix(-.00217192 .1378004 -.11754143 -.0018506 97.374016 -13.076546)" gradientUnits="userSpaceOnUse" r="218" xlink:href="#a"/><radialGradient id="d" cx="49.529999" cy="320.10001" gradientTransform="matrix(.1081026 0 0 .08287757 29.746587 4.298144)" gradientUnits="userSpaceOnUse" r="31.950001" xlink:href="#a"/><g fill-rule="evenodd" stroke-width=".032888" transform="translate(-25.69 -25.52)"><path d="m26.920199 42.599417c.0022-.863637.73636-2.069307 1.779566-3.164804.697223-.732085 1.4053-1.374715 2.94873-2.690561-1.067541-.585734-2.728052-1.292495-3.561761-2.21829-.308292-.342364-.866926-1.118518-.758725-2.155145.220876-2.11305 2.82869-5.317977 6.53483-5.998758 1.233297-.225578 2.649451-.06275 3.814999.461089 3.657137 1.643738 8.126605 5.729076 8.679122 7.722083.193645.701829.156448 1.820676-.177431 2.444231-.413729.772866-1.846327 2.342278-3.805131 3.962995-3.075021 2.541249-7.383338 5.268644-10.603066 5.729076-1.039587.148357-2.101867-.0064-2.847107-.426886-1.166206-.658088-1.553297-1.536523-1.689453-1.799955-.361767-.700185-.316941-1.587501-.316152-1.865733zm8.652812-9.701937c.03969-.489701 1.959791-.0022 1.838435.385776-.128.409125-1.884149.176115-1.838435-.385776z" fill="#ccc"/><path d="m32.686767 35.936324c-1.010317.853113-1.682217 1.428323-2.524476 2.198229-2.028528 1.853892-3.407189 3.265113-2.696152 5.193003.819566 2.225197 2.616563 2.112391 4.722705 1.698661 5.429795-1.07116 14.358866-7.935855 13.905013-10.468225-.368345-2.051219-5.357442-6.130309-8.30749-7.580666-.922505-.453525-1.985772-.687686-3.052327-.637696-4.061658.191671-7.232053 3.887352-7.070902 5.893515.157598 1.948938 5.084472 3.64727 5.025274 3.706468zm-.609413-6.80451c-1.221786 1.359587-.440698 3.989305 1.585526 5.423217 2.37122 1.677614 6.20924 1.981169 6.975529.687687 1.425362-2.412986-.130895-4.966076-2.453768-6.103998-2.295577-1.124766-5.344287-.855414-6.107287-.008z" fill="url(#b)"/><path d="m36.245241 34.499123c1.715433.238437 3.194074-.448592 3.423631-2.14232.176115-1.290193-1.798639-2.700098-2.985894-3.02536-.99157-.271522-3.144085.07761-3.288792 1.952885-.150857 1.949267 1.849617 3.076008 2.849739 3.214795zm-.839958-3.242092c-1.127398 1.746349 1.636832 2.283408 2.060099 1.965054 1.824621-1.373071-1.563492-2.734303-2.060099-1.965054z" fill="url(#d)"/><path d="m34.406805 26.802362c-1.993994.210155-2.376152.466681-4.183343 1.833502-.605467.458129-1.719709 1.5727-2.005506 2.895124-.10876.503514.0198.938292.382487 1.243163 1.161273.976442 3.105277 1.768383 4.699684 2.534343.467008.224296.157829.631119-.595272 1.282958-1.900592 1.645382-4.469468 3.64727-4.650351 5.17327-.08452.719259.161677 1.696359 1.034654 2.196584 1.019854.584089 3.13652.202918 4.551687-.323453 2.065691-.769249 4.778616-2.466593 6.932775-4.134012 2.239996-1.735166 4.321472-3.939972 4.426713-4.29845.12652-.441357.113891-.849166-.130236-1.31782-.383473-.736031-.895866-1.282956-1.44641-1.89533-1.476668-1.556915-3.039173-2.924723-4.910167-3.972861-1.350049-.757079-2.537632-1.38228-4.107702-1.216853zm2.929328 3.489409c1.440819.696566 2.920118 2.52612-.01284 3.578206-.797532.286322-3.328257-.703144-3.249326-2.053523.112904-1.99498 1.503307-2.375823 3.262153-1.52534z" fill="url(#c)"/></g></svg>
