<svg height="5.820833mm" viewBox="0 0 20.999999 22" width="5.55625mm" xmlns="http://www.w3.org/2000/svg"><ellipse cx="81.103134" cy="-4917.2954" fill="#f00" rx="75.532959" ry="79.282967" stroke="#fff" stroke-width="6.43407" transform="scale(1 -1)"/><g fill="#fff" stroke="#fff"><ellipse cx="10.412944" cy="11.273614" rx="7.504501" ry="7.709746" stroke-width=".268951"/><ellipse cx="10.412944" cy="11.096356" rx="7.854783" ry="8.168491" stroke-width="3.722835"/></g><path d="m81.096176 4994.1171c-41.434443 0-75.0371456-35.2633-75.0371456-78.7694 0-34.7985 21.5003836-64.3253 51.3208466-74.7451 3.754612-.7355 5.12287 1.7062 5.12287 3.8008 0 1.8827-.06503 6.822-.100698 13.3939-20.873831-4.7568-25.277988 10.5611-25.277988 10.5611-3.413716 9.1019-8.333904 11.523-8.333904 11.523-6.813606 4.8834.515885 4.7863.515885 4.7863 7.532278-.5589 11.494188-8.1193 11.494188-8.1193 6.693832-12.032 17.566104-8.5577 21.841302-6.5426.68183 5.0893 2.621276 8.5606 4.763532 10.5287-16.663126 1.971-34.183184 8.7489-34.183184 38.9317 0 8.6018 2.925272 15.6297 7.725793 21.1368-.773933 2.0004-3.349223 9.9991.737218 20.8455 0 0 6.297635 2.1181 20.634289-8.0693 5.984352 1.7356 12.406372 2.6182 18.786922 2.6476 6.375931 0 12.793358-.912 18.786922-2.6476 14.327436 10.1874 20.615866 8.0693 20.615866 8.0693 4.09551-10.8464 1.52017-18.8539.75106-20.8455 4.80957-5.5071 7.71195-12.535 7.71195-21.1368 0-30.2623-17.54766-36.9195-34.261495-38.8699 2.690446-2.4417 5.090621-7.2369 5.090621-14.5884 0-10.5257-.09021-19.0246-.09021-21.6045 0-2.1181 1.354444-4.5598 5.159724-3.792 29.79738 10.4404 51.27934 39.9407 51.27934 74.7363 0 43.5061-33.6027 78.7694-75.050932 78.7694" fill="#1b1817" fill-rule="evenodd" transform="matrix(.10082493 0 0 -.10082493 2.277187 506.741174)"/></svg>
