<svg height="350" width="850" xmlns="http://www.w3.org/2000/svg"><path d="m176 125c-6-6.5-9.9-15-11-23s.3-18 4.3-26 10-14 18-19c7.7-4.2 17-5.9 25-5 14 1.6 27 10 34 23l79 11h-90c-5.6-7.2-14-12-23-13-6.5-.89-13 .045-19 2.7-6 2.6-11 6.9-15 12-3.7 5.4-5.9 12-6.3 18s1.1 13 4.2 19" fill="#1a1a1a"/><g fill="#0192d3"><path d="m187 155-121-87c-5.8 11-8.1 25-6.5 37 1.6 13 7.1 25 15 35 11 13 27 21 44 22-7.9-2.6-15-7.1-21-13-5.7-6.1-9.9-14-12-22-2.4-9.2-2-19 1-28z"/><path d="m180 179-106-30c-.86 9.9 1.1 20 5.6 29 4.5 8.9 11 17 20 22 13 7.8 28 10 43 6.3-14 .096-29-7-37-19-4.8-6.5-7.8-14-8.6-22z"/><path d="m229 112c-2 4.1-3.3 8.5-4.1 13-2.2 14 1.9 28 6.1 42 4.1 13 8.3 28 6.3 42-1.6 10-6.6 20-14 28s-16 14-26 18c-16 6.6-34 8.1-51 4.4v46l14-33c18 4.1 37 2.5 55-4.7 12-5.1 23-13 31-24 8.1-11 13-24 13-37-.41-16-7.9-31-15-45-7.3-14-15-29-15-45-.01-1.3.035-2.6.12-3.9"/></g><g fill="#0192d3"><path d="m393 252v18h-92v-161h22v143z"/><path d="m432 188-53-78h22c1.6.00016 2.7.26 3.5.79.75.53 1.4 1.3 2 2.2l42 65c.52-1.6 1.3-3.3 2.4-5.2l40-59c.67-1 1.4-1.9 2.1-2.5.82-.67 1.8-1 2.9-1h21l-53 77 55 84h-22c-1.6 0-3-.32-3.9-1.1-.9-.9-1.6-1.9-2.2-2.9l-43-68c-.52 1.6-1.2 3.1-2 4.5l-42 63c-.67 1-1.5 2-2.4 2.9-.82.82-2 1.1-3.6 1.1h-20z"/></g><g fill="#1a1a1a"><path d="m705 190c-.0001 7.4-.77 14-2.3 21-1.5 6.7-3.6 13-6.5 19-2.9 5.7-6.3 11-10 16-4.1 4.7-8.7 8.8-14 12l40 44h-18c-2.6-.00003-5-.37-7-1.1-2.1-.73-3.9-2.1-5.6-3.9l-28-30c-4.2 1.3-8.5 2.3-13 3.1-4.5.73-9.2 1.1-14 1.1-12 0-22-1.9-32-5.8-9.5-4-18-9.5-25-17-6.8-7.1-12-16-16-25-3.7-9.9-5.6-21-5.6-33s1.9-23 5.6-32c3.7-9.9 9-18 16-26 6.8-7.2 15-13 25-17 9.5-4 20-5.9 32-5.9 12 .00016 22 2 32 5.9 9.6 4 18 9.5 25 17 6.8 7.1 12 16 16 26 3.7 9.8 5.6 21 5.6 32m-22 0c-.0002-9.7-1.3-18-4-26-2.6-7.7-6.4-14-11-19-4.8-5.4-11-9.5-18-12-6.9-2.9-15-4.3-23-4.3-8.4.00014-16 1.4-23 4.3-6.9 2.9-13 7-18 12-4.8 5.3-8.6 12-11 19-2.6 7.7-4 16-4 26 0 9.7 1.3 18 4 26 2.6 7.6 6.4 14 11 19 4.9 5.3 11 9.4 18 12 6.9 2.8 15 4.2 23 4.2 8.5.00002 16-1.4 23-4.2 6.9-2.9 13-6.9 18-12 4.8-5.4 8.6-12 11-19 2.6-7.7 4-16 4-26"/><path d="m764 270c-8.9 0-16-2.5-21-7.5-4.7-5-7.1-12-7.1-21v-69h-14c-1.2.0001-2.2-.33-3-1-.82-.74-1.2-1.9-1.2-3.3v-7.9l19-2.3 4.6-34c.15-1.1.63-2 1.4-2.7.82-.74 1.9-1.1 3.1-1.1h10v38l32 .18v14h-32v68c0 4.7.96 8.3 3.3 11 2.3 2.3 5.3 3.4 8.9 3.4 2.1.00002 3.9-.26 5.3-.78 1.6-.59 2.9-1.2 4-1.9 1.1-.67 2-1.3 2.8-1.8.82-.59 1.5-.89 2.1-.89 1 .00002 2 .63 2.8 1.9l5.8 9.5c-3.4 3.2-7.5 5.7-12 7.6-4.8 1.8-9.8 2.7-15 2.7"/></g></svg>
