<svg height="350" width="850" xmlns="http://www.w3.org/2000/svg"><g transform="matrix(.99888162 0 0 .99809723 -940.88687 -1564.02585)"><path d="m1116.8938 1689.4194c-5.9501-6.4533-9.8718-14.7504-11.0814-23.4444s.2983-17.7464 4.2608-25.5789 10.362-14.4102 18.0827-18.5864c7.7206-4.1761 16.7282-5.9321 25.4522-4.9618 14.0311 1.5606 27.0437 10.436 33.618 22.9295l79.0542 10.904h-90.1007c-5.6213-7.1952-14.1129-12.0817-23.1583-13.3266-6.4597-.889-13.1604.045-19.131 2.6661-5.9705 2.6213-11.1929 6.9222-14.9103 12.2794-3.7173 5.3573-5.9185 11.7546-6.2844 18.265s1.1045 13.1141 4.1982 18.8541z" fill="#fff"/><g fill="#0192d3"><path d="m1128.0085 1719-121.00003-87c-5.79688 11.4486-8.0911 24.6415-6.49942 37.3749 1.59169 12.7335 7.06282 24.9557 15.49945 34.6251 11.0648 12.6815 27.2298 20.7807 44.0118 22.0513-7.9223-2.5599-15.1793-7.1499-20.8872-13.2109-5.7079-6.0609-9.8546-13.5801-11.935-21.6416-2.383-9.2343-2.0312-19.1565 1-28.1988z"/><path d="m1121.2919 1742.501-106.31654-29.9171c-.85695 9.9442 1.09424 20.1153 5.57014 29.0365 4.476 8.9212 11.4632 16.5656 19.9473 21.8232 12.5858 7.7995 28.4343 10.1316 42.7334 6.2881-14.3249.096-28.5169-7.0219-37.0072-18.5599-4.7934-6.514-7.8065-14.3248-8.6296-22.3704z"/><path d="m1169.7781 1675.729c-1.9753 4.1002-3.3486 8.4898-4.0625 12.9847-2.2142 13.9416 1.9287 28.0237 6.0575 41.5228 4.1289 13.499 8.3376 27.5466 6.255 41.5085-1.5555 10.428-6.6401 20.1889-13.7567 27.9681s-16.2003 13.6286-25.9621 17.6121c-16.0797 6.5616-34.1667 8.1034-51.125 4.3581v46.4118l13.9455-33.13c18.0735 4.1247 37.4229 2.4559 54.5233-4.7024 12.2473-5.1268 23.4211-13.1088 31.4777-23.6621 8.0567-10.5533 12.8628-23.7392 12.5223-37.0119-.4093-15.9555-7.944-30.7436-15.2368-44.9408-7.2927-14.1972-14.6821-29.0987-14.7632-45.0592-.01-1.2875.035-2.5753.125-3.8597"/></g></g><g fill="#0192d3" transform="matrix(1.0005173 0 0 .99948297 -567.819896 -445.48535)"><path d="m961.33407 697.36056v18.00931h-91.95244v-161.08331h21.98863v143.074z"/><path d="m1030.804 632.68111-53.20035-78.39455h21.70753c1.57462.00016 2.73682.2626 3.48672.78732.7498.52504 1.4246 1.27486 2.0245 2.24948l42.0654 64.56022c.5248-1.57454 1.3121-3.29915 2.3619-5.17381l39.7035-58.93651c.6747-1.0496 1.387-1.87441 2.137-2.47443.8247-.67469 1.7994-1.01211 2.9243-1.01227h20.8077l-53.4252 77.38228 55.2248 83.70103h-21.595c-1.6498 0-2.962-.32012-3.9366-1.14493-.8999-.89979-1.6498-1.87457-2.2495-2.92433l-43.1901-67.59702c-.525 1.57471-1.1998 3.07436-2.0246 4.49897l-42.0653 63.09805c-.6749 1.04976-1.4622 2.02454-2.36199 2.92433-.82484.82481-2.02456 1.14493-3.59918 1.14493h-20.24536z"/></g><g fill="#fff" transform="matrix(1.0005173 0 0 .99948297 -558.98853 -445.48535)"><path d="m1263.6359 634.93825c-.0001 7.40874-.7704 14.45061-2.3107 21.12568-1.4671 6.67518-3.6311 12.91018-6.4917 18.70503-2.8609 5.72157-6.3452 10.92963-10.4528 15.62419-4.1078 4.69462-8.7291 8.76571-13.8637 12.21329l40.4909 43.77946h-17.6048c-2.6408-.00003-4.9881-.3668-7.0419-1.1003-2.0539-.73356-3.9245-2.11496-5.6115-3.94875l-27.7274-30.1481c-4.1813 1.32035-8.5458 2.34729-13.0936 3.08082-4.4745.73354-9.1691 1.1003-14.0837 1.1003-11.5899 0-22.1527-1.94385-31.6885-5.83157-9.536-3.96105-17.7148-9.4992-24.5366-16.61446-6.8219-7.11522-12.1033-15.58748-15.8443-25.41683-3.741-9.90261-5.6115-20.75885-5.6115-32.56876 0-11.80975 1.8705-22.62931 5.6115-32.45872 3.741-9.90254 9.0224-18.41149 15.8443-25.52686 6.8218-7.18845 15.0006-12.76329 24.5366-16.7245 9.5358-3.9609 20.0986-5.94143 31.6885-5.94159 11.5897.00016 22.1524 1.98069 31.6885 5.94159 9.6091 3.96121 17.8247 9.53605 24.6466 16.7245 6.8217 7.11537 12.1031 15.62432 15.8443 25.52686 3.7408 9.82941 5.6114 20.64897 5.6115 32.45872m-21.8959 0c-.0002-9.68251-1.3205-18.37484-3.9611-26.07701-2.6408-7.70196-6.3818-14.19369-11.223-19.47523-4.8414-5.35464-10.7096-9.4624-17.6047-12.32331-6.8953-2.86063-14.5973-4.29102-23.1062-4.29116-8.4357.00014-16.1011 1.43053-22.9962 4.29116-6.8953 2.86091-12.8001 6.96867-17.7148 12.32331-4.8413 5.28154-8.5823 11.77327-11.2229 19.47523-2.6409 7.70217-3.9611 16.3945-3.9611 26.07701 0 9.68267 1.3202 18.37501 3.9611 26.07701 2.6406 7.62876 6.3816 14.1205 11.2229 19.47524 4.9147 5.28145 10.8195 9.35254 17.7148 12.21328 6.8951 2.78743 14.5605 4.18114 22.9962 4.18112 8.5089.00002 16.2109-1.39369 23.1062-4.18112 6.8951-2.86074 12.7633-6.93183 17.6047-12.21328 4.8412-5.35474 8.5822-11.84648 11.223-19.47524 2.6406-7.702 3.9609-16.39434 3.9611-26.07701"/><path d="m1323.0267 715.36987c-8.8986 0-15.7579-2.48418-20.5779-7.45256-4.746-4.96836-7.1189-12.1243-7.1189-21.46783v-68.96402h-13.7638c-1.1865.0001-2.1876-.3336-3.0033-1.00109-.8157-.74145-1.2236-1.85377-1.2236-3.33696v-7.8975l18.6581-2.33587 4.5605-33.83987c.1483-1.11218.6303-2.00203 1.446-2.66957.8157-.7414 1.8539-1.11218 3.1145-1.11233h10.2013v37.84423l31.9834.17543v14.17353h-31.9834v67.62923c0 4.74594.959 8.26829 3.2578 10.56707 2.2988 2.29882 5.265 3.44822 8.8986 3.4482 2.0763.00002 3.856-.25953 5.3392-.77862 1.5572-.59323 2.8919-1.22354 4.0043-1.89095 1.1123-.66738 2.0392-1.26062 2.7808-1.77972.8157-.59322 1.5201-.88984 2.1135-.88986 1.0381.00002 1.965.63034 2.7808 1.89095l5.784 9.45474c-3.4112 3.18867-7.5267 5.70993-12.3467 7.5638-4.8202 1.77972-9.7885 2.66957-14.9052 2.66957"/></g></svg>
