<svg width="22px" height="22px" aria-hidden="true" focusable="false" role="img" version="1.1" viewBox="0 0 22 22" xmlns="http://www.w3.org/2000/svg">
 <path d="m12.954 4.027h-5.04e-4c-0.50022 0-0.90772-0.40679-0.90823-0.90672-2.01e-4 -0.50174 0.4068-0.90913 0.90742-0.90943 0.50083 0 0.90813 0.40679 0.90863 0.90682 2.01e-4 0.24324-0.09403 0.47136-0.26535 0.64288-0.17152 0.17171-0.39943 0.26615-0.64198 0.26645zm-2.4217-1.4126h-6.06e-4c-0.44463 0-0.80673-0.36159-0.80703-0.80623-3.03e-4 -0.21601 0.08354-0.4186 0.23578-0.57124 0.15235-0.1525 0.35504-0.2367 0.57064-0.2369 0.44534 0 0.80734 0.36169 0.80774 0.80613 4.03e-4 0.44573-0.3614 0.80784-0.80653 0.80824zm2.7237 5.1458c-0.61161 0-1.1094-0.49729-1.1098-1.1084-6.04e-4 -0.61271 0.49679-1.1108 1.1088-1.1113 0.61241 0 1.1102 0.49719 1.1108 1.1083 5.05e-4 0.61271-0.49689 1.1108-1.1088 1.1114zm-2.219-1.917h-6.06e-4c-0.55591 0-1.0084-0.45201-1.0089-1.0075-2.02e-4 -0.27048 0.10453-0.52383 0.29491-0.71442 0.19048-0.19079 0.44372-0.2958 0.7132-0.296 0.55682 0 1.0094 0.45199 1.0097 1.0076 2.02e-4 0.27038-0.10453 0.52363-0.29491 0.71432-0.19038 0.19059-0.44362 0.2958-0.71321 0.29602zm-1.4123 2.7242h-8.074e-4c-0.6669 0-1.21-0.54239-1.2107-1.2089-5.044e-4 -0.6687 0.54219-1.2119 1.2097-1.2126 0.6679 0 1.2109 0.54241 1.2117 1.2089 5.05e-4 0.66872-0.54219 1.212-1.2097 1.2127h-2.014e-4zm1.6135 12.41c-3.7274 0-6.76-3.1504-6.76-7.0228 0-2.1281 0.9158-4.1184 2.5124-5.4606 0.36382-0.30591 0.89552-0.30591 1.2595 9.99e-5 0.85819 0.72179 1.8914 1.1035 2.988 1.1035 1.0979 0 2.1318-0.38157 2.99-1.1035 0.36392-0.30601 0.89552-0.30601 1.2594-9.99e-5 1.5953 1.3408 2.5102 3.3313 2.5102 5.4606 0 3.8725-3.0323 7.0228-6.7597 7.0228zm-3.5187-10.445c-0.81662 0.92781-1.2738 2.1406-1.2738 3.4255 0 2.7847 2.1499 5.0499 4.7925 5.0499 2.6425 0 4.7923-2.2652 4.7923-5.0499 0-1.2858-0.45623-2.4982-1.2716-3.4255-1.0541 0.66882-2.2764 1.0302-3.5206 1.0302-1.243 0-2.4647-0.3613-3.5187-1.0302z" fill="#f2f2f2" stroke-width="1.6648"/>
</svg>
