<svg height="22" viewBox="0 0 5.8208332 5.8208336" width="22" xmlns="http://www.w3.org/2000/svg"><path d="m2.952307.34106c-1.438854 0-2.605548 1.16669-2.605548 2.60554 0 1.43887 1.166694 2.60506 2.605548 2.60506 1.104223 0 2.047712-.68707 2.426969-1.65695-.37291.44774-.934179.73272-1.562432.73272-1.122768 0-2.033005-.90975-2.033005-2.0325 0-1.12278.910237-2.03301 2.033005-2.03301.07085 0 .140933.004.209914.0104-.327627-.14853-.69131-.2313-1.074451-.2313zm.892523.55469c-.934248 0-1.695354.76111-1.695354 1.69536 0 .93424.761106 1.69591 1.695354 1.69591s1.695923-.76167 1.695923-1.69591c0-.93425-.761675-1.69536-1.695923-1.69536zm0 .38244c.727564 0 1.313487.58535 1.313487 1.31292 0 .72755-.585923 1.31348-1.313487 1.31348-.727563 0-1.312917-.58593-1.312917-1.31348 0-.72757.585354-1.31292 1.312917-1.31292z" fill="#fff"/></svg>
