<svg height="22" viewBox="0 0 22 22.000001" width="22" xmlns="http://www.w3.org/2000/svg" xmlns:xlink="http://www.w3.org/1999/xlink"><clipPath id="a"><path d="m0 200.3h320v-200.3h-320z"/></clipPath><clipPath id="b"><path d="m-39.020287-50.445507h104.90399v125.95223h-104.90399z" transform="scale(1 -1)"/></clipPath><clipPath id="c"><path d="m223.48476-197.41525h88.571419v85.027817h-88.571419z" transform="scale(1 -1)"/></clipPath><g clip-path="url(#c)" fill="#f9f9f9" transform="matrix(.23314406 0 0 -.23314406 -51.394236 46.907722)"><g clip-path="url(#a)" fill="#f9f9f9"><path clip-path="url(#b)" d="m0 0c.175 4.73 2.156 9.12 5.614 12.34 3.46 3.231 7.975 4.9 12.71 4.75 9.761-.349 17.43-8.589 17.1-18.34-.184-4.73-2.164-9.12-5.614-12.33-3.46-3.25-7.964-4.92-12.72-4.76-9.749.359-17.41 8.58-17.08 18.34zm47.35-17.44c.805.532 1.396.972 1.645 1.07l.269.419c-.681 4.28-7.06 25.03-11.88 30.02-1.329 1.36-2.394 2.7-4.549 3.961-17.46 10.17-58.86 16.31-60.8 16.59l-.33-.091-.124-.3s-.16-8.58-.184-9.539c-4.229 1.421-34.97 11.35-63.79 12.35-239.86746-133.642057-46.71484-78.354709 58.67-126.897l.461.11.009.479c-13.274883 22.388919-16.864095 45.950935 12.86 42.63 4.28-.5 9.152-1.06 14.2-1.172 14.08-.089 29.25 2.511 38.6 6.601 6.049 2.63 9.909 4.38 12.33 6.579.87.721 1.32 1.891 1.791 3.15l.329.831c.391 1.021.967 3.171 1.219 4.35.102.519.162 1.068-.209 1.359l-1.294-.24c-4.106-2.471-14.37-7.15-23.96-7.35-11.91-.241-35.9 11.98-38.4 13.28l-.241.279c-.589 1.44-4.19 9.949-4.96 11.75 17.27-11.38 31.59-17.67 42.56-18.64 12.21-1.087 21.72 5.574 25.79 8.422h-.001zm-27.15 15.8c-3.031 0-5.479 1.64-5.479 3.65 0 2.029 2.448 3.66 5.479 3.66s5.486-1.631 5.486-3.66c-.002-2.01-2.457-3.65-5.486-3.65m-2.021 13.51c-3.311.119-6.45-1.051-8.85-3.301-2.399-2.25-3.814-5.298-3.914-8.599-.23-6.821 5.111-12.56 11.92-12.81 3.309-.1 6.464 1.07 8.878 3.32 2.409 2.261 3.795 5.311 3.9 8.599.23 6.819-5.109 12.55-11.93 12.79z" fill="#f9f9f9" transform="translate(262.7 162.7)"/></g></g></svg>
