<svg height="22mm" viewBox="0 0 22 22" width="22mm" xmlns="http://www.w3.org/2000/svg"><path d="m10.52 1.1717c-.44032.057814-.88402.066922-1.3221.15868-1.6006.33521-3.1011 1.0381-4.3478 2.1043-.91088.77898-1.6601 1.7325-2.2279 2.7859-2.2679 4.2075-.85889 9.6284 3.067 12.305 1.1944.81443 2.6563 1.4003 4.0958 1.5738.44363.05347.92364.0032 1.3707.0032.37447 0 .77212.0385 1.1442-.0032 4.8938-.54942 8.5312-5.1834 8.2622-10.014-.23117-4.1512-3.3011-7.6709-7.296-8.6568-.86063-.21239-1.8589-.3733-2.746-.25683m0 .78466c.62735-.074063 1.2877.029069 1.9069.11253 4.4114.59455 7.738 4.9057 7.3182 9.3131-.29234 3.0698-2.1491 5.8289-4.9537 7.1583-.89974.42649-1.8634.67172-2.8477.79262-.99167.12179-2.0634.02673-3.0256-.22776-1.3997-.37017-2.6838-1.0319-3.763-2.0067-2.4934-2.2522-3.4631-5.9344-2.4183-9.1235.48871-1.4917 1.3756-2.8314 2.5499-3.872 1.494-1.3238 3.2908-1.9173 5.2332-2.1466m.27968.7663c-.5823.076457-1.1528.092544-1.7289.23699-1.8852.47262-3.5668 1.6708-4.6439 3.2864-2.4501 3.6752-1.3605 8.8186 2.4064 11.153.65717.40727 1.3833.74461 2.1357.93441 1.0092.25456 2.0413.33546 3.0765.21124 3.6933-.44314 6.7761-3.6441 6.9402-7.3916.16018-3.6583-2.111-7.0528-5.6689-8.0994-.766-.22533-1.7151-.43637-2.5171-.33106m4.2202 2.9496c.11838.00463.13869.11991.14869.2178.02586.25319.03257.5095.06247.76277.12591 1.0666.27686 2.156.32426 3.229.03634.82226.18334 1.5958-.016 2.4154-.59214 2.4343-2.8029 3.9975-5.2735 3.8891-.50532-.022162-1.0319-.16056-1.5001-.34746-3.1013-1.238-4.1105-5.2068-2.0681-7.8059.70284-.89442 1.7064-1.4976 2.8055-1.7642.94786-.2299 1.9814-.24002 2.9494-.33226.83439-.079508 1.73-.2972 2.5675-.26433m-.63516.80258c-.27622-.059853-.61184.035748-.88989.069006-.42217.050493-.84769.076478-1.2713.12713-1.7002.20335-3.4591.13257-4.7245 1.5064-1.0861 1.1792-1.4821 2.8474-.96401 4.3742.12713.3746.32557.95056.64581 1.2051.14696.11681.49438-.07114.64405-.12753.61161-.23046 1.1669-.56437 1.7035-.93365 1.5616-1.0747 2.8613-2.5596 3.8592-4.1611.38123-.61179.84413-1.3467.99706-2.0595m.2034 1.2713c-.21253.73632-.80339 1.4715-1.2458 2.085-1.3973 1.9374-3.2777 3.7053-5.5428 4.5511.15502.3297.69656.56943 1.017.7081 1.0776.46633 2.2497.52461 3.3562.11897 1.4758-.54101 2.5987-1.9509 2.767-3.5222.07274-.67927-.05335-1.3619-.11838-2.034-.0416-.42969-.09962-.86551-.12919-1.2967-.013-.18985.0197-.45306-.10397-.61021z" fill="#ececec"/></svg>
