<svg height="22" viewBox="11.811 12.73 2.4260632 2.4256458" width="22" xmlns="http://www.w3.org/2000/svg"><g fill="#f9f9f9" stroke-width=".00801"><ellipse cx="12.127104" cy="13.929367" rx=".227056" ry=".212422"/><ellipse cx="13.715634" cy="14.816262" rx=".227056" ry=".21243"/><path d="m13.18609973 13.39912802c.2758526 0 .50473521.19812463.54263.45498578h.37955665c-.01723728-.20183321-.10375211-.38995348-.24838669-.53832068-.09263438.04563234-.20653501.04650542-.30329448-.00751328-.09683156-.05408278-.15302094-.15000121-.15840358-.25051732a.96302106.96302106 0 00-.21209388-.02353306c-.138491 0-.27232024.02924411-.39404654.08468857l.19001862.31835308a.56138916.56138916 0 01.20401991-.0381431z"/><path d="m13.72875376 14.00437934c-.03780668.25695727-.26672133.45520205-.54265403.45520205-.07210503 0-.14099008-.01356875-.204092-.03819116l-.19005066.31837711c.12169426.0554765.25557957.08473663.39412664.08473663.07236936 0 .14348917-.00808198.21226209-.02358112.00528653-.10062825.06149994-.19671489.15839557-.2508217.09679151-.05406676.21074021-.05319368.3033906-.00746522.14452245-.14838321.23094115-.33649548.24813037-.5382566z"/><path d="m12.63794291 13.92935871c0-.16892858.08209336-.31964267.20969091-.41680264l-.18997056-.31830502a.93240727.93240727 0 00-.12597154.10214212c-.10994375.1063393-.1887851.23474585-.23217467.37487887.08741193.05477163.14529139.14984101.14529139.25808667 0 .10822963-.05788748.20332305-.1452994.25807065.04338957.14014104.12223092.26853156.23217467.37488688a.93261552.93261552 0 00.12586741.10211008l.1900026-.31832905c-.12756551-.09715196-.20961081-.24786605-.20961081-.41673856z"/><ellipse cx="13.715449" cy="13.042111" rx=".227048" ry=".212438"/></g></svg>
