<svg height="22" preserveAspectRatio="xMidYMid" viewBox="0 0 22 22" width="22" xmlns="http://www.w3.org/2000/svg"><g stroke-width=".093645"><path d="m11.14207291 1.046154c-2.06318311.00438102-4.07295916.65619811-5.74599093 1.8635582l2.2383753 2.23837521c1.05608057-.64602125 2.26961567-.98886999 3.50761563-.99097513 3.72450125-.0000074 6.74380807 3.01929895 6.74380058 6.74380077-.00297792 1.23755889-.34644659 2.45043567-.99278211 3.50580846l2.24261791 2.24261791c1.20697619-1.67399959 1.8579612-3.68467763 1.86112361-5.74842636 0-5.44263272-4.41212782-9.85475904-9.85475998-9.85475904z" fill="#e0e0e0"/><path d="m16.88806356 18.8921137-2.23837577-2.23837483c-1.05608075.64602088-2.26961586.98887055-3.50761488.99097476-3.72450191.00000749-6.74380836-3.01929933-6.74380096-6.74380058.00298073-1.23755907.34644537-2.45043623.99278211-3.50580855l-2.24261875-2.24261762c-1.20697778 1.67399838-1.85795942 3.68467717-1.86112164 5.74842618 0 5.44263216 4.41212632 9.85475904 9.85475923 9.85475904 2.06318311-.0043826 4.07295841-.65619732 5.74599065-1.86355838z" fill="#979797"/><circle cx="11.140498" cy="10.900913" fill="#e0e0e0" r="3.137434"/></g></svg>
